<?xml version="1.0" encoding="utf-8"?>
<!-- Generator: Adobe Illustrator 22.1.0, SVG Export Plug-In . SVG Version: 6.00 Build 0)  -->
<svg version="1.1" id="Capa_1" xmlns="http://www.w3.org/2000/svg" xmlns:xlink="http://www.w3.org/1999/xlink" x="0px" y="0px"
	 viewBox="0 0 1401.9 476.7" style="enable-background:new 0 0 1401.9 476.7;" xml:space="preserve">
<style type="text/css">
	.st0{fill:#3A9DBF;stroke:#3A9DBF;stroke-width:3;stroke-miterlimit:10;}
	.st1{fill:url(#SVGID_1_);}
	.st2{fill:#FFFFFF;}
	.st3{fill:#2D6B8E;}
</style>
<g>
	<g id="Capa_3_2_">
		<g>
			<path class="st0" d="M429.7,182.3v64h39.9v13.5h-54.3v-77.4H429.7z"/>
			<path class="st0" d="M558.4,182.6V227c0,22.8-14,34.5-33.5,34.5c-18.5,0-34.3-11.2-34.3-34.5v-44.4h14.5V227
				c0,14,7.9,21.3,20.1,21.3c12.2,0,18.8-8.1,18.8-21.3v-44.4H558.4z"/>
			<path class="st0" d="M581,182.3h59.4v6.9l-40.1,56.6h40.1v13.7H580v-8.1l39.1-55.3h-38.3v-13.7H581z"/>
			<path class="st0" d="M770.1,220.4c0.3,19.5-11.7,39.4-38.6,39.4c-9.4,0-20.8,0-30.5,0v-77.4c9.4,0,20.8,0,30.5,0
				C757.9,182.3,769.6,201.4,770.1,220.4z M715.5,245.8h16c17.5,0,24.6-12.7,24.1-25.4c-0.3-11.9-7.4-24.1-24.1-24.1h-16V245.8z"/>
			<path class="st0" d="M852.6,259.8h-57.9c0-25.6,0-51.5,0-77.4h57.9v14.2h-43.4v17.8h41.9V228h-41.9v17.5h43.4V259.8z"/>
			<path class="st0" d="M984.9,250.1c-7.9,7.9-18.3,11.4-29.5,11.4c-28.7,0-40.9-19.8-40.9-39.9c0-20.3,12.9-40.9,40.9-40.9
				c10.4,0,20.6,4.1,28.4,11.9l-9.6,9.4c-5.1-5.1-11.9-7.4-18.8-7.4c-18.8,0-26.7,14-26.7,26.9c0,12.7,7.6,26.1,26.7,26.1
				c6.9,0,14.5-2.8,19.5-7.9L984.9,250.1z"/>
			<path class="st0" d="M1076.8,259.8h-17.3l-22.6-25.9h-14v25.9h-14.5v-77.4c12.2,0,24.6,0,36.8,0c18.3,0,27.9,12.2,27.9,25.6
				c0,10.7-4.8,21.3-19.5,24.4l23.4,26.4v1H1076.8z M1023,196v24.6h22.1c9.4,0,13.2-6.1,13.2-12.4c0-6.1-4.1-12.4-13.2-12.4H1023
				V196z"/>
			<path class="st0" d="M1098.1,259.8v-77.4h14.5v77.4H1098.1z"/>
			<path class="st0" d="M1191.6,201.1c-2.5-4.3-9.9-8.6-18.3-8.6c-10.9,0-16,4.6-16,10.2c0,6.9,7.9,8.6,17.3,9.6
				c16.2,2,31.2,6.1,31.2,24.6c0,17.3-15.2,24.6-32.5,24.6c-15.7,0-27.9-4.8-33.8-19l12.2-6.3c3.3,8.6,12.4,12.2,21.8,12.2
				c9.1,0,17.8-3.3,17.8-11.7c0-7.4-7.6-10.2-17.8-11.4c-15.7-1.8-30.5-6.1-30.5-23.4c0-16,15.7-22.3,30-22.6
				c11.9,0,24.6,3.3,30.5,15.2L1191.6,201.1z"/>
			<path class="st0" d="M1252,195.8h-24.6v-13.2c22.3,0,41.1,0,63.7,0v13.2h-24.6v64H1252L1252,195.8L1252,195.8z"/>
			<path class="st0" d="M1391.4,221.4c-0.3,20.1-12.4,40.1-39.6,40.1c-27.2,0-39.9-19.5-39.9-39.9s12.9-40.9,39.9-40.9
				C1378.2,180.8,1391.6,201.4,1391.4,221.4z M1326.1,221.9c0.3,12.7,7.1,26.4,25.4,26.4c18.3,0,25.1-13.7,25.4-26.4
				c0.3-12.9-7.1-27.7-25.4-27.7C1333.5,194,1325.9,208.7,1326.1,221.9z"/>
		</g>
	</g>
	<g>
		<linearGradient id="SVGID_1_" gradientUnits="userSpaceOnUse" x1="168.4574" y1="393.7901" x2="124.0878" y2="-199.2264">
			<stop  offset="7.960219e-02" style="stop-color:#FF6700"/>
			<stop  offset="0.1888" style="stop-color:#FF8800"/>
			<stop  offset="0.3113" style="stop-color:#FFA600"/>
			<stop  offset="0.4413" style="stop-color:#FFBD00"/>
			<stop  offset="0.5806" style="stop-color:#FFCD00"/>
			<stop  offset="0.7356" style="stop-color:#FFD700"/>
			<stop  offset="0.9378" style="stop-color:#FFDA00"/>
		</linearGradient>
		<path class="st1" d="M177.9,442.7c52.6-0.1,79-23.3,79-23.3C336,360.1,308.6,252,308.6,252c-5.5,30.5-25.7,49.6-25.7,49.6
			s12.8-78.1-19.8-153.7C219,46.1,134.7,4,134.7,4c38.9,119.1-11.6,148-11.6,148c18-64.1-27.3-77.8-27.3-77.8
			c16.6,39.7-8.4,57-47.7,126.6c-41,72.5,2.8,154.1,2.8,154.1c-16.6-3.1-40.3-30.5-40.3-30.5c14,112.9,138.9,119.1,138.9,119.1
			S155.9,443.3,177.9,442.7z"/>
		<path class="st2" d="M152.6,214.2c0,0-8.8-0.5-9.5,9l0.9,46.6l-35.5,0.8c0,0-6,2.4-6.4,7.2l3.7,26.7c0,0,0.8,3.8,7.4,6.1l32-1.4
			l5.8,134.1l40.3,0.4l2.7-134.3l35.3,1.2c0,0,5-1.7,6.3-5.4l-0.4-25.5c0,0,1.6-10-2.7-10.8l-36.2-1.3l-0.1-43.8
			c0,0-1.6-8.1-6.3-9.9L152.6,214.2z"/>
		<path class="st3" d="M34.8,472.5c0,0,31-33.9,129.5-33.9c0,0,64.4-4.5,124.4,33.9c0,0-53.6-20.5-124-21
			C164.7,451.5,80.8,449.2,34.8,472.5z"/>
	</g>
	<g>
		<g id="Capa_2_2_">
			<g>
				<path class="st3" d="M415.2,368.3v-63.1h11.9v63.1H415.2z"/>
				<path class="st3" d="M486.4,320.6c-4.3-4-10.5-6.4-16-6.4c-13.5,0-21.7,10.2-21.7,23.2c0,10.4,6.1,21.1,21.7,21.1
					c5,0,9.2-1.1,14.2-5.1v-11.2h-16.2v-10.6h27.1v26.6c-6.2,7.2-14.1,11.3-25.1,11.3c-23.7,0-33.4-15.6-33.4-32.2
					c0-17.8,11-34.1,33.4-34.1c8.4,0,17,3.2,23.5,9.7L486.4,320.6z"/>
				<path class="st3" d="M518.6,305.2v52H551v11h-44.3v-63.1L518.6,305.2L518.6,305.2z"/>
				<path class="st3" d="M607.9,368.3h-47.2c0-21,0-42.1,0-63.1h47.2v11.6h-35.5v14.5h34.2v11h-34.1v14.2h35.5v11.7H607.9z"/>
				<path class="st3" d="M659.4,320.4c-2.2-3.6-8.1-7-14.9-7c-8.8,0-13.1,3.7-13.1,8.4c0,5.5,6.5,7,14.1,7.9
					c13.1,1.7,25.4,5.1,25.4,20.2c0,14.1-12.4,20.2-26.5,20.2c-12.8,0-22.8-4-27.5-15.5l9.9-5.1c2.8,6.9,10.1,9.9,17.8,9.9
					c7.5,0,14.5-2.6,14.5-9.5c0-5.9-6.2-8.4-14.6-9.2c-12.8-1.5-24.8-5-24.8-19.1c0-13,12.8-18.4,24.4-18.4c9.8,0,20,2.8,24.8,12.6
					L659.4,320.4z"/>
				<path class="st3" d="M681.6,368.3v-63.1h11.9v63.1H681.6z"/>
				<path class="st3" d="M750.8,356.4h-33l-5.4,11.9h-12.8l28.3-63.1h13l28.3,63.1h-13L750.8,356.4z M734.4,318.4l-11.7,26.9h23.5
					L734.4,318.4z"/>
				<path class="st3" d="M845.9,323.5c0,4.8-2.3,9.5-8.1,12.1c7.5,2.2,10.1,10.1,10.1,14.1c0,14.1-10.5,18.5-23.6,18.5
					c-9.9,0-19.9,0-30,0v-63.1c9.9,0,19.9,0,30,0C836.7,305.2,845.9,310.8,845.9,323.5z M806,330.6h18.2c7.5,0,9.9-3.2,9.9-6.8
					c0-2.9-2.3-7.7-9.9-7.7H806V330.6z M806,357.2h18.2c4.8,0,11.9-1.7,11.9-7.6c0-5.7-6.9-8.7-11.9-8.7H806V357.2z"/>
				<path class="st3" d="M857.6,368.3v-63.1h11.9v63.1H857.6z"/>
				<path class="st3" d="M933.4,323.5c0,4.8-2.3,9.5-8.1,12.1c7.5,2.2,10.1,10.1,10.1,14.1c0,14.1-10.5,18.5-23.6,18.5
					c-9.9,0-19.9,0-30,0v-63.1c9.9,0,19.9,0,30,0C924,305.2,933.4,310.8,933.4,323.5z M893.4,330.6h18.2c7.5,0,9.9-3.2,9.9-6.8
					c0-2.9-2.3-7.7-9.9-7.7h-18.2V330.6z M893.4,357.2h18.2c4.8,0,11.9-1.7,11.9-7.6c0-5.7-6.9-8.7-11.9-8.7h-18.2V357.2z"/>
				<path class="st3" d="M957,305.2v52h32.4v11h-44.3v-63.1L957,305.2L957,305.2z"/>
				<path class="st3" d="M999.3,368.3v-63.1h11.9v63.1H999.3z"/>
				<path class="st3" d="M1079.4,360.4c-6.5,6.4-14.9,9.4-24,9.4c-23.5,0-33.4-16.2-33.4-32.6c-0.1-16.4,10.6-33.3,33.4-33.3
					c8.6,0,16.7,3.2,23.2,9.7l-7.9,7.6c-4.1-4-9.7-5.9-15.2-5.9c-15.2,0-21.8,11.3-21.7,21.9c0.1,10.5,6.1,21.4,21.7,21.4
					c5.5,0,11.7-2.2,15.9-6.4L1079.4,360.4z"/>
				<path class="st3" d="M1129.5,356.4h-33l-5.4,11.9h-12.8l28.3-63.1h13l28.3,63.1h-13L1129.5,356.4z M1113,318.4l-11.7,26.9h23.5
					L1113,318.4z"/>
			</g>
		</g>
		<polygon class="st3" points="867.7,298.2 858.6,298.2 867.1,285 881,285 		"/>
	</g>
</g>
</svg>
