<svg width="20" height="18" xmlns="http://www.w3.org/2000/svg">

 <g>
  <title>Layer 1</title>
  <path stroke="null" fill="#fff" stroke-width="0" id="svg_1" d="m0.16453,17.051c0.186,0.28 0.499,0.449 0.835,0.449l15,0c0.4,0 0.762,-0.238 0.919,-0.606l3,-7a0.998,0.998 0 0 0 -0.919,-1.394l-1,0l0,-4c0,-1.103 -0.897,-2 -2,-2l-6.1,0l-2.284,-1.787a0.997,0.997 0 0 0 -0.616,-0.213l-5,0c-1.103,0 -2,0.897 -2,2l0,14l0.007,0m15.89498,-0.00907l-14.57896,-0.01866l2.84281,-6.97926l14.68569,0.06681l-2.94954,6.9311zm0.85944,-12.49855l0.05076,4.30457l-12.81218,0.20305c-0.4,0 -0.762,0.238 -0.919,0.606l-1.79166,4.5027l0.10152,-9.61631l15.37056,0z"/>
 </g>
</svg>
